<svg width="35" height="47" viewBox="0 0 35 47" fill="none" xmlns="http://www.w3.org/2000/svg">
<path d="M17.3176 22.4991V46.5006L5.86227 40.4487C2.25622 38.5436 0 34.7999 0 30.7216V19.7175C0 16.2828 3.76453 14.1768 6.69145 15.9741L17.3176 22.4991Z" fill="url(#paint0_linear_3489_3073)"/>
<path d="M17.3176 22.4991V46.5006L28.773 40.4487C32.379 38.5436 34.6353 34.7999 34.6353 30.7216V19.7175C34.6353 16.2828 30.8707 14.1768 27.9438 15.9741L17.3176 22.4991Z" fill="url(#paint1_linear_3489_3073)"/>
<g clip-path="url(#clip0_3489_3073)">
<path d="M15.0482 4.5087C15.5431 3.06042 17.5442 3.01656 18.131 4.37711L18.1807 4.50953L18.8485 6.46263C19.0016 6.91055 19.2489 7.32044 19.5738 7.66464C19.8988 8.00885 20.2937 8.27936 20.7321 8.45795L20.9117 8.52498L22.8648 9.19202C24.3131 9.68692 24.3569 11.688 22.9972 12.2748L22.8648 12.3244L20.9117 12.9923C20.4636 13.1453 20.0536 13.3925 19.7092 13.7175C19.3649 14.0424 19.0942 14.4374 18.9156 14.8759L18.8485 15.0547L18.1815 17.0086C17.6866 18.4569 15.6855 18.5007 15.0995 17.141L15.0482 17.0086L14.3812 15.0555C14.2282 14.6074 13.981 14.1974 13.656 13.853C13.3311 13.5087 12.9361 13.238 12.4976 13.0593L12.3188 12.9923L10.3657 12.3253C8.91663 11.8304 8.87277 9.82926 10.2333 9.24333L10.3657 9.19202L12.3188 8.52498C12.7668 8.37193 13.1767 8.12459 13.5209 7.79966C13.8651 7.47473 14.1356 7.07976 14.3142 6.64139L14.3812 6.46263L15.0482 4.5087ZM23.2356 1.65517C23.3904 1.65517 23.5421 1.6986 23.6735 1.78053C23.8049 1.86246 23.9106 1.97959 23.9787 2.11862L24.0185 2.21545L24.3081 3.06456L25.158 3.35421C25.3132 3.40693 25.4492 3.50452 25.5489 3.63461C25.6485 3.76471 25.7073 3.92146 25.7177 4.08499C25.7282 4.24852 25.6899 4.41148 25.6076 4.55321C25.5254 4.69494 25.4029 4.80906 25.2557 4.88111L25.158 4.92084L24.3089 5.21049L24.0193 6.06043C23.9665 6.21554 23.8688 6.35149 23.7387 6.45104C23.6085 6.55059 23.4518 6.60927 23.2882 6.61964C23.1247 6.63001 22.9618 6.59161 22.8201 6.50929C22.6784 6.42698 22.5644 6.30445 22.4924 6.15725L22.4527 6.06043L22.163 5.21132L21.3131 4.92166C21.1579 4.86895 21.0219 4.77136 20.9223 4.64126C20.8226 4.51117 20.7639 4.35442 20.7534 4.19089C20.7429 4.02735 20.7813 3.8644 20.8635 3.72267C20.9458 3.58094 21.0682 3.46681 21.2154 3.39476L21.3131 3.35504L22.1622 3.06538L22.4518 2.21545C22.5076 2.05194 22.6132 1.91 22.7538 1.80952C22.8943 1.70904 23.0628 1.65507 23.2356 1.65517Z" fill="url(#paint2_linear_3489_3073)"/>
</g>
<defs>
<linearGradient id="paint0_linear_3489_3073" x1="8.65881" y1="11.8652" x2="8.65881" y2="46.5006" gradientUnits="userSpaceOnUse">
<stop stop-color="#7B3EC9"/>
<stop offset="1" stop-color="#57219C"/>
</linearGradient>
<linearGradient id="paint1_linear_3489_3073" x1="36.0005" y1="15" x2="25.9764" y2="46.5006" gradientUnits="userSpaceOnUse">
<stop stop-color="#57219C"/>
<stop offset="1" stop-color="#57219C"/>
</linearGradient>
<linearGradient id="paint2_linear_3489_3073" x1="17.4821" y1="1.65517" x2="17.4821" y2="18.1288" gradientUnits="userSpaceOnUse">
<stop stop-color="#57219C"/>
<stop offset="1" stop-color="#6125B1"/>
</linearGradient>
<clipPath id="clip0_3489_3073">
<rect width="19.8621" height="19.8621" fill="white" transform="translate(7.44263)"/>
</clipPath>
</defs>
</svg>
