<svg width="132" height="33" viewBox="0 0 132 33" fill="none" xmlns="http://www.w3.org/2000/svg">
<path d="M56.8598 23.2426C57.0305 24.1813 57.7345 24.3733 57.7345 24.9066V24.9706C57.7345 25.2053 57.5425 25.3333 57.2438 25.3333H53.4038C53.1265 25.3333 52.9132 25.2053 52.9132 24.9706V24.9066C52.9132 24.3733 53.8305 24.1813 53.6598 23.2426L52.1665 14.7733L48.5612 24.7359C48.4332 25.1199 48.2625 25.3119 47.8785 25.3119C47.4945 25.3119 47.2598 25.1413 47.0892 24.7573L43.1425 14.3893L41.7772 23.2426C41.6278 24.1813 42.5452 24.3733 42.5452 24.9066V24.9706C42.5452 25.2053 42.3745 25.3333 42.0758 25.3333H39.6652C39.3665 25.3333 39.1958 25.2053 39.1958 24.9706V24.9066C39.1958 24.3733 39.8998 24.1813 40.0492 23.2426L41.8198 12.2559C41.9478 11.3599 41.0305 11.1679 41.0305 10.6133V10.5493C41.0305 10.3359 41.2012 10.1866 41.4785 10.1866H43.8252C44.3372 10.1866 44.6998 10.4213 44.8705 10.8906L48.3265 20.9386L51.7398 10.8906C51.9105 10.4213 52.2305 10.1866 52.7212 10.1866H55.1745C55.4305 10.1866 55.6225 10.3146 55.6225 10.5279V10.6133C55.6225 11.1679 54.6412 11.3599 54.8118 12.3413L56.8598 23.2426ZM67.0725 22.0906C67.3285 21.7706 67.8192 21.8773 67.7978 22.3253C67.6698 23.5626 66.2192 25.5466 63.4672 25.5466C60.5018 25.5466 58.3045 23.4133 58.3045 20.1279C58.3045 17.0346 60.6725 14.8799 63.4672 14.8799C66.2618 14.8799 67.4992 16.5013 67.4992 17.9093C67.4992 18.6346 67.1365 19.0613 66.5605 19.3173L61.8245 21.4719C62.3792 22.6453 63.3605 23.3279 64.6405 23.3279C65.7712 23.3279 66.6672 22.7519 67.0725 22.0906ZM63.0832 15.8186C61.9525 15.8186 61.2698 17.0346 61.2698 18.6559C61.2698 19.3173 61.3338 19.9359 61.4832 20.4906L64.2352 19.1039C64.6192 18.9119 64.7898 18.5493 64.7898 18.1013C64.7898 17.3333 64.2352 15.8186 63.0832 15.8186ZM86.597 23.2639C86.661 24.2026 87.365 24.3733 87.365 24.9066V24.9919C87.365 25.2266 87.173 25.3546 86.8957 25.3546H83.205C82.9063 25.3546 82.7143 25.2266 82.7143 24.9919V24.9066C82.7143 24.3733 83.525 24.2026 83.461 23.2853L83.2477 19.3813C83.141 16.9706 82.5223 16.0959 81.3917 16.0959C80.389 16.0959 79.7063 17.0346 79.6637 18.3146C79.7277 18.6346 79.749 18.9759 79.749 19.3386V23.2853C79.749 24.2026 80.4957 24.3733 80.4957 24.9066V24.9919C80.4957 25.2266 80.3037 25.3546 80.0263 25.3546H76.3357C76.0583 25.3546 75.845 25.2266 75.845 24.9919V24.9066C75.845 24.3733 76.613 24.2026 76.613 23.2853V19.1253C76.613 17.1413 75.845 16.0959 74.757 16.0959C73.5837 16.0959 72.9223 17.1199 72.9223 18.4639V23.2853C72.9223 24.2026 73.8397 24.3733 73.8397 24.9066V24.9919C73.8397 25.2266 73.6477 25.3546 73.349 25.3546H69.381C69.1037 25.3546 68.8903 25.2266 68.8903 24.9919V24.9066C68.8903 24.3733 69.8077 24.2026 69.8077 23.2853V18.3146C69.8077 17.3759 68.7623 17.2693 68.7623 16.7359V16.6506C68.7623 16.4373 68.9543 16.3306 69.2103 16.2026L71.8983 14.9653C72.389 14.7093 72.645 15.0079 72.645 15.4133V16.4159C73.2637 15.4773 74.3303 14.8799 75.589 14.8799C77.1037 14.8799 78.405 15.5413 79.1303 16.7999C79.7063 15.5839 80.9437 14.8799 82.373 14.8799C84.3143 14.8799 86.085 15.9893 86.341 19.4666L86.597 23.2639ZM97.0308 22.0906C97.2868 21.7706 97.7775 21.8773 97.7562 22.3253C97.6282 23.5626 96.1775 25.5466 93.4255 25.5466C90.4602 25.5466 88.2628 23.4133 88.2628 20.1279C88.2628 17.0346 90.6308 14.8799 93.4255 14.8799C96.2202 14.8799 97.4575 16.5013 97.4575 17.9093C97.4575 18.6346 97.0948 19.0613 96.5188 19.3173L91.7828 21.4719C92.3375 22.6453 93.3188 23.3279 94.5988 23.3279C95.7295 23.3279 96.6255 22.7519 97.0308 22.0906ZM93.0415 15.8186C91.9108 15.8186 91.2282 17.0346 91.2282 18.6559C91.2282 19.3173 91.2922 19.9359 91.4415 20.4906L94.1935 19.1039C94.5775 18.9119 94.7482 18.5493 94.7482 18.1013C94.7482 17.3333 94.1935 15.8186 93.0415 15.8186ZM109.921 23.2639C109.985 24.2026 110.689 24.3733 110.689 24.9066V24.9919C110.689 25.2053 110.497 25.3546 110.198 25.3546H106.507C106.209 25.3546 106.017 25.2053 106.017 24.9919V24.9066C106.017 24.3733 106.827 24.2026 106.785 23.2639L106.571 19.3173C106.465 17.0346 105.846 16.0959 104.715 16.0959C103.563 16.0959 102.902 17.0559 102.902 18.4426V23.2853C102.902 24.2026 103.819 24.3733 103.819 24.9066V24.9919C103.819 25.2053 103.627 25.3546 103.329 25.3546H99.3607C99.062 25.3546 98.87 25.2053 98.87 24.9919V24.9066C98.87 24.3733 99.7873 24.2026 99.7873 23.2853V18.3146C99.7873 17.3546 98.742 17.2693 98.742 16.7359V16.6506C98.742 16.4373 98.9127 16.3306 99.1687 16.2026L101.707 14.9653C102.198 14.7093 102.433 15.0079 102.433 15.4133V16.6079C103.009 15.5199 104.139 14.8799 105.59 14.8799C107.531 14.8799 109.409 16.0319 109.665 19.4239L109.921 23.2639ZM115.78 25.5466C113.839 25.5466 112.559 24.2879 112.559 21.8559V16.3306H111.556C111.3 16.3306 111.129 16.1599 111.129 15.9039V15.5413C111.129 15.2639 111.279 15.0933 111.556 15.0933H112.089C113.284 15.0933 114.116 14.2399 114.351 12.9813C114.415 12.6613 114.607 12.4693 114.841 12.4693H115.268C115.567 12.4693 115.737 12.6613 115.737 12.9813L115.759 15.0933H118.212C118.447 15.0933 118.639 15.2853 118.639 15.5413V15.9039C118.639 16.1599 118.447 16.3306 118.212 16.3306H115.759V21.8986C115.759 22.7519 116.228 23.2639 116.847 23.2639C117.7 23.2639 118.127 22.7946 118.297 22.3039C118.553 21.9413 119.065 22.0266 119.065 22.4319C119.065 23.9679 117.913 25.5466 115.78 25.5466ZM125.504 25.5466C122.069 25.5466 119.658 23.1146 119.658 20.1493C119.658 17.0559 122.197 14.8799 125.184 14.8799C128.469 14.8799 130.922 17.2266 130.922 20.2559C130.922 23.2853 128.618 25.5466 125.504 25.5466ZM125.888 24.6079C127.04 24.6079 127.722 23.4773 127.722 21.5146C127.722 19.1893 126.57 15.8186 124.757 15.8186C123.477 15.8186 122.794 16.9066 122.794 18.9333C122.794 21.1093 123.946 24.6079 125.888 24.6079Z" fill="#2F3943"/>
<g clip-path="url(#clip0_217_10845)">
<path d="M15.5451 15.9994V32.0004L7.90818 27.9658C5.50415 26.6957 4 24.1999 4 21.481V14.145C4 11.8552 6.50969 10.4512 8.46097 11.6494L15.5451 15.9994Z" fill="url(#paint0_linear_217_10845)"/>
<path d="M15.5448 15.9994V32.0004L23.1817 27.9658C25.5857 26.6957 27.0898 24.1999 27.0898 21.481V14.145C27.0898 11.8552 24.5802 10.4512 22.6289 11.6494L15.5448 15.9994Z" fill="url(#paint1_linear_217_10845)"/>
<g clip-path="url(#clip1_217_10845)">
<path d="M14.365 4.00586C14.6949 3.04035 16.029 3.0111 16.4202 3.91814L16.4533 4.00642L16.8985 5.30849C17.0006 5.6071 17.1655 5.88036 17.3821 6.10983C17.5987 6.3393 17.862 6.51964 18.1543 6.6387L18.274 6.68339L19.576 7.12808C20.5416 7.45801 20.5708 8.79208 19.6643 9.18326L19.576 9.21636L18.274 9.6616C17.9753 9.76357 17.7019 9.92843 17.4723 10.1451C17.2428 10.3617 17.0623 10.625 16.9432 10.9173L16.8985 11.0365L16.4538 12.3391C16.1239 13.3046 14.7898 13.3339 14.3992 12.4274L14.365 12.3391L13.9203 11.0371C13.8183 10.7383 13.6535 10.465 13.4369 10.2354C13.2202 10.0058 12.9569 9.82541 12.6646 9.70629L12.5454 9.6616L11.2433 9.21691C10.2773 8.88698 10.248 7.55291 11.1551 7.16229L11.2433 7.12808L12.5454 6.68339C12.844 6.58135 13.1173 6.41646 13.3467 6.19984C13.5762 5.98322 13.7566 5.7199 13.8756 5.42766L13.9203 5.30849L14.365 4.00586ZM19.8232 2.10352C19.9264 2.10352 20.0276 2.13247 20.1152 2.18709C20.2027 2.2417 20.2733 2.31979 20.3187 2.41248L20.3452 2.47703L20.5383 3.0431L21.1049 3.23621C21.2083 3.27135 21.299 3.33641 21.3654 3.42314C21.4318 3.50987 21.471 3.61437 21.478 3.72339C21.485 3.83242 21.4594 3.94105 21.4046 4.03554C21.3497 4.13003 21.2681 4.20611 21.17 4.25414L21.1049 4.28062L20.5388 4.47373L20.3457 5.04035C20.3105 5.14376 20.2454 5.23439 20.1586 5.30076C20.0719 5.36713 19.9673 5.40625 19.8583 5.41316C19.7493 5.42008 19.6407 5.39447 19.5462 5.33959C19.4518 5.28472 19.3758 5.20304 19.3278 5.1049L19.3013 5.04035L19.1082 4.47428L18.5416 4.28118C18.4381 4.24603 18.3474 4.18097 18.281 4.09424C18.2146 4.00751 18.1754 3.90301 18.1684 3.79399C18.1615 3.68497 18.187 3.57633 18.2419 3.48184C18.2967 3.38736 18.3783 3.31128 18.4765 3.26324L18.5416 3.23676L19.1076 3.04366L19.3007 2.47703C19.3379 2.36803 19.4083 2.2734 19.502 2.20641C19.5957 2.13943 19.708 2.10345 19.8232 2.10352Z" fill="url(#paint2_linear_217_10845)"/>
</g>
</g>
<defs>
<linearGradient id="paint0_linear_217_10845" x1="9.77254" y1="8.91016" x2="9.77254" y2="32.0004" gradientUnits="userSpaceOnUse">
<stop stop-color="#7B3EC9"/>
<stop offset="1" stop-color="#57219C"/>
</linearGradient>
<linearGradient id="paint1_linear_217_10845" x1="28" y1="11" x2="21.3173" y2="32.0004" gradientUnits="userSpaceOnUse">
<stop stop-color="#57219C"/>
<stop offset="1" stop-color="#57219C"/>
</linearGradient>
<linearGradient id="paint2_linear_217_10845" x1="15.9876" y1="2.10352" x2="15.9876" y2="13.086" gradientUnits="userSpaceOnUse">
<stop stop-color="#57219C"/>
<stop offset="1" stop-color="#6125B1"/>
</linearGradient>
<clipPath id="clip0_217_10845">
<rect width="32" height="32" fill="white"/>
</clipPath>
<clipPath id="clip1_217_10845">
<rect width="13.2414" height="13.2414" fill="white" transform="translate(8.96094 1)"/>
</clipPath>
</defs>
</svg>
