<svg width="48" height="48" viewBox="0 0 48 48" fill="none" xmlns="http://www.w3.org/2000/svg">
<path d="M35.0156 17.1455C36.5027 16.1491 38.4998 17.2149 38.5 19.0049V29.1035C38.4999 31.692 37.1603 34.0963 34.959 35.458L24 42.2363L13.041 35.458C10.8397 34.0963 9.50014 31.692 9.5 29.1035V19.0049C9.50016 17.2149 11.4973 16.1491 12.9844 17.1455L22.9268 23.8076C23.5762 24.2428 24.4238 24.2428 25.0732 23.8076L35.0156 17.1455Z" stroke="#474747" stroke-width="3"/>
<path d="M23.9824 5.125C24.174 5.11853 24.3254 5.20882 24.4014 5.37402L24.4336 5.45996L25.0566 7.2832C25.254 7.86085 25.5731 8.39009 25.9922 8.83398C26.4112 9.27779 26.9211 9.62617 27.4863 9.85645L27.501 9.86328L27.5166 9.86914L27.6875 9.93262L27.7021 9.9375L27.7178 9.94336L29.5723 10.5762C29.7724 10.6446 29.8685 10.7949 29.875 10.9824C29.8816 11.1741 29.7914 11.3255 29.627 11.4014L29.543 11.4326L27.7168 12.0566C27.1392 12.2539 26.6109 12.5733 26.167 12.9922C25.7229 13.4112 25.374 13.9209 25.1436 14.4863L25.1318 14.5156L25.0684 14.6855L25.0566 14.7168L24.4229 16.5723C24.3544 16.7723 24.2049 16.8685 24.0176 16.875C23.8217 16.8817 23.6675 16.7874 23.5938 16.6162L23.5684 16.5498L22.9434 14.7178C22.7461 14.14 22.4268 13.6111 22.0078 13.167C21.5888 12.7229 21.0791 12.374 20.5137 12.1436L20.4844 12.1318L20.3145 12.0684L20.2832 12.0566L18.4277 11.4229C18.0443 11.2914 18.0213 10.7549 18.3779 10.5957L18.4502 10.5674L20.2832 9.94336C20.8609 9.74598 21.3901 9.42685 21.834 9.00781C22.2778 8.5888 22.6262 8.07893 22.8564 7.51367L22.8682 7.48438L22.9316 7.31445L22.9434 7.2832L23.5762 5.42773C23.6446 5.22762 23.7951 5.13146 23.9824 5.125Z" stroke="#474747" stroke-width="2.25"/>
</svg>
